<svg width="304" height="191" viewBox="0 0 304 191" fill="none" xmlns="http://www.w3.org/2000/svg">
<mask id="path-1-outside-1_63_3" maskUnits="userSpaceOnUse" x="3" y="32" width="117" height="119" fill="black">
<rect fill="white" x="3" y="32" width="117" height="119"/>
<path d="M63.6 147.4C53.3 147.4 43.8 145 35.1 140.2C26.5 135.3 19.65 128.6 14.55 120.1C9.45 111.5 6.9 101.9 6.9 91.3C6.9 80.7 9.45 71.15 14.55 62.65C19.65 54.05 26.5 47.35 35.1 42.55C43.8 37.65 53.3 35.2 63.6 35.2C72 35.2 79.65 36.7 86.55 39.7C93.55 42.6 99.55 46.75 104.55 52.15L90.6 65.8C87 62 83 59.15 78.6 57.25C74.3 55.35 69.25 54.4 63.45 54.4C56.85 54.4 50.8 55.95 45.3 59.05C39.8 62.05 35.4 66.4 32.1 72.1C28.9 77.7 27.3 84.1 27.3 91.3C27.3 98.5 28.95 104.95 32.25 110.65C35.55 116.25 39.95 120.6 45.45 123.7C51.05 126.7 57.15 128.2 63.75 128.2C73.75 128.2 81.95 125.25 88.35 119.35C90.35 117.55 92.1 115.25 93.6 112.45C95.1 109.65 96.2 106.6 96.9 103.3H63.15V86.05H115.8C116.5 88.85 116.85 92 116.85 95.5C116.85 102.6 115.75 109.2 113.55 115.3C111.45 121.4 108.2 126.75 103.8 131.35C99 136.55 93.2 140.55 86.4 143.35C79.6 146.05 72 147.4 63.6 147.4Z"/>
</mask>
<path d="M63.6 147.4C53.3 147.4 43.8 145 35.1 140.2C26.5 135.3 19.65 128.6 14.55 120.1C9.45 111.5 6.9 101.9 6.9 91.3C6.9 80.7 9.45 71.15 14.55 62.65C19.65 54.05 26.5 47.35 35.1 42.55C43.8 37.65 53.3 35.2 63.6 35.2C72 35.2 79.65 36.7 86.55 39.7C93.55 42.6 99.55 46.75 104.55 52.15L90.6 65.8C87 62 83 59.15 78.6 57.25C74.3 55.35 69.25 54.4 63.45 54.4C56.85 54.4 50.8 55.95 45.3 59.05C39.8 62.05 35.4 66.4 32.1 72.1C28.9 77.7 27.3 84.1 27.3 91.3C27.3 98.5 28.95 104.95 32.25 110.65C35.55 116.25 39.95 120.6 45.45 123.7C51.05 126.7 57.15 128.2 63.75 128.2C73.75 128.2 81.95 125.25 88.35 119.35C90.35 117.55 92.1 115.25 93.6 112.45C95.1 109.65 96.2 106.6 96.9 103.3H63.15V86.05H115.8C116.5 88.85 116.85 92 116.85 95.5C116.85 102.6 115.75 109.2 113.55 115.3C111.45 121.4 108.2 126.75 103.8 131.35C99 136.55 93.2 140.55 86.4 143.35C79.6 146.05 72 147.4 63.6 147.4Z" fill="black"/>
<path d="M35.1 140.2L33.6149 142.807L33.6327 142.817L33.6508 142.827L35.1 140.2ZM14.55 120.1L11.9696 121.63L11.9736 121.637L11.9775 121.643L14.55 120.1ZM14.55 62.65L17.1225 64.1935L17.1265 64.1869L17.1304 64.1802L14.55 62.65ZM35.1 42.55L36.5621 45.1696L36.5722 45.1639L35.1 42.55ZM86.55 39.7L85.3538 42.4512L85.3777 42.4616L85.4018 42.4716L86.55 39.7ZM104.55 52.15L106.648 54.2942L108.734 52.2532L106.751 50.1118L104.55 52.15ZM90.6 65.8L88.4221 67.8632L90.519 70.0766L92.6981 67.9443L90.6 65.8ZM78.6 57.25L77.3875 59.9941L77.3991 59.9992L77.4107 60.0042L78.6 57.25ZM45.3 59.05L46.7366 61.6837L46.7549 61.6737L46.773 61.6635L45.3 59.05ZM32.1 72.1L29.5037 70.5969L29.4995 70.6042L29.4953 70.6116L32.1 72.1ZM32.25 110.65L29.6537 112.153L29.6595 112.163L29.6654 112.173L32.25 110.65ZM45.45 123.7L43.977 126.313L44.005 126.329L44.0333 126.344L45.45 123.7ZM88.35 119.35L86.3431 117.12L86.3298 117.132L86.3166 117.144L88.35 119.35ZM93.6 112.45L90.9556 111.033L90.9556 111.033L93.6 112.45ZM96.9 103.3L99.8347 103.923L100.603 100.3H96.9V103.3ZM63.15 103.3H60.15V106.3H63.15V103.3ZM63.15 86.05V83.05H60.15V86.05H63.15ZM115.8 86.05L118.71 85.3224L118.142 83.05H115.8V86.05ZM113.55 115.3L110.728 114.282L110.721 114.303L110.713 114.323L113.55 115.3ZM103.8 131.35L101.632 129.276L101.614 129.296L101.596 129.315L103.8 131.35ZM86.4 143.35L87.5071 146.138L87.5247 146.131L87.5423 146.124L86.4 143.35ZM63.6 144.4C53.7876 144.4 44.7889 142.119 36.5492 137.573L33.6508 142.827C42.8111 147.881 52.8124 150.4 63.6 150.4V144.4ZM36.5852 137.593C28.4336 132.949 21.9578 126.615 17.1225 118.557L11.9775 121.643C17.3422 130.585 24.5664 137.651 33.6149 142.807L36.5852 137.593ZM17.1304 118.57C12.3218 110.461 9.9 101.395 9.9 91.3H3.9C3.9 102.405 6.57825 112.539 11.9696 121.63L17.1304 118.57ZM9.9 91.3C9.9 81.2046 12.3217 72.1948 17.1225 64.1935L11.9775 61.1065C6.57829 70.1052 3.9 80.1954 3.9 91.3H9.9ZM17.1304 64.1802C21.9646 56.0284 28.4318 49.7074 36.5621 45.1696L33.6379 39.9304C24.5682 44.9926 17.3354 52.0716 11.9696 61.1198L17.1304 64.1802ZM36.5722 45.1639C44.8083 40.5252 53.7988 38.2 63.6 38.2V32.2C52.8012 32.2 42.7917 34.7748 33.6278 39.9361L36.5722 45.1639ZM63.6 38.2C71.6365 38.2 78.873 39.6334 85.3538 42.4512L87.7462 36.9488C80.4271 33.7666 72.3635 32.2 63.6 32.2V38.2ZM85.4018 42.4716C92.0141 45.211 97.6515 49.1153 102.349 54.1882L106.751 50.1118C101.448 44.3847 95.0859 39.989 87.6982 36.9284L85.4018 42.4716ZM102.452 50.0057L88.5019 63.6557L92.6981 67.9443L106.648 54.2942L102.452 50.0057ZM92.7779 63.7368C88.9245 59.6693 84.5954 56.5711 79.7893 54.4958L77.4107 60.0042C81.4047 61.7288 85.0755 64.3307 88.4221 67.8632L92.7779 63.7368ZM79.8125 54.5059C75.0523 52.4026 69.5726 51.4 63.45 51.4V57.4C68.9274 57.4 73.5477 58.2974 77.3875 59.9941L79.8125 54.5059ZM63.45 51.4C56.3583 51.4 49.7973 53.0714 43.827 56.4365L46.773 61.6635C51.8027 58.8285 57.3417 57.4 63.45 57.4V51.4ZM43.8634 56.4163C37.8553 59.6935 33.0646 64.4463 29.5037 70.5969L34.6963 73.6031C37.7354 68.3536 41.7447 64.4065 46.7366 61.6837L43.8634 56.4163ZM29.4953 70.6116C26.0071 76.7159 24.3 83.64 24.3 91.3H30.3C30.3 84.56 31.7929 78.6841 34.7047 73.5884L29.4953 70.6116ZM24.3 91.3C24.3 98.9772 26.065 105.954 29.6537 112.153L34.8463 109.147C31.835 103.946 30.3 98.0228 30.3 91.3H24.3ZM29.6654 112.173C33.2252 118.214 38.0029 122.946 43.977 126.313L46.923 121.087C41.8971 118.254 37.8748 114.286 34.8346 109.127L29.6654 112.173ZM44.0333 126.344C50.0863 129.587 56.6756 131.2 63.75 131.2V125.2C57.6244 125.2 52.0137 123.813 46.8667 121.056L44.0333 126.344ZM63.75 131.2C74.3834 131.2 83.347 128.042 90.3834 121.556L86.3166 117.144C80.553 122.458 73.1167 125.2 63.75 125.2V131.2ZM90.3569 121.58C92.6567 119.51 94.6095 116.919 96.2444 113.867L90.9556 111.033C89.5905 113.581 88.0433 115.59 86.3431 117.12L90.3569 121.58ZM96.2444 113.867C97.8862 110.802 99.0796 107.482 99.8347 103.923L93.9653 102.677C93.3204 105.718 92.3138 108.498 90.9556 111.033L96.2444 113.867ZM96.9 100.3H63.15V106.3H96.9V100.3ZM66.15 103.3V86.05H60.15V103.3H66.15ZM63.15 89.05H115.8V83.05H63.15V89.05ZM112.89 86.7776C113.519 89.2956 113.85 92.1953 113.85 95.5H119.85C119.85 91.8047 119.481 88.4044 118.71 85.3224L112.89 86.7776ZM113.85 95.5C113.85 102.286 112.8 108.538 110.728 114.282L116.372 116.318C118.7 109.862 119.85 102.914 119.85 95.5H113.85ZM110.713 114.323C108.752 120.019 105.728 124.994 101.632 129.276L105.968 133.424C110.672 128.506 114.148 122.781 116.387 116.277L110.713 114.323ZM101.596 129.315C97.1033 134.182 91.6704 137.935 85.2578 140.576L87.5423 146.124C94.7296 143.165 100.897 138.918 106.004 133.385L101.596 129.315ZM85.2929 140.562C78.8934 143.103 71.6765 144.4 63.6 144.4V150.4C72.3235 150.4 80.3066 148.997 87.5071 146.138L85.2929 140.562Z" fill="black" mask="url(#path-1-outside-1_63_3)"/>
<rect x="129" y="38.5" width="175" height="114" rx="57" fill="black"/>
</svg>
